<svg width="22" height="22" viewBox="0 0 22 22" fill="none" xmlns="http://www.w3.org/2000/svg">
<circle cx="11" cy="11" r="11" fill="#FEA41A"/>
<path d="M16.578 7.67852C16.3577 7.53336 16.0831 7.47318 15.8141 7.51108C15.5451 7.54899 15.3035 7.68192 15.142 7.88091L9.99184 14.2449L6.69049 11.8537C6.47159 11.6986 6.19384 11.6289 5.91833 11.6598C5.64282 11.6907 5.39212 11.8198 5.22138 12.0186C5.05065 12.2174 4.97386 12.4697 5.00791 12.7199C5.04196 12.9701 5.18406 13.1978 5.40296 13.3529L9.52965 16.3512C9.72412 16.4684 9.95819 16.5189 10.1899 16.4936C10.35 16.4931 10.5077 16.4589 10.6509 16.3939C10.794 16.3289 10.9187 16.2348 11.0153 16.1188L16.7926 8.99779C16.8748 8.89866 16.9344 8.78571 16.9681 8.66548C17.0018 8.54526 17.0089 8.42015 16.9889 8.29742C16.969 8.17469 16.9224 8.05679 16.8518 7.95055C16.7813 7.8443 16.6882 7.75184 16.578 7.67852Z" fill="black"/>
</svg>
