<svg width="24" height="24" viewBox="0 0 24 24" fill="none" xmlns="http://www.w3.org/2000/svg">
<path d="M22.5653 10.565H5.45426C5.40365 10.5645 5.35436 10.5487 5.31287 10.5197C5.27139 10.4907 5.23964 10.4499 5.22179 10.4025C5.20395 10.3551 5.20084 10.3035 5.21288 10.2543C5.22492 10.2051 5.25155 10.1607 5.28926 10.127L13.9263 2.52699C14.1978 2.27098 14.3593 1.91955 14.3768 1.54678C14.3943 1.174 14.2664 0.808988 14.0201 0.528667C13.7737 0.248345 13.4282 0.0746107 13.0562 0.0440768C12.6843 0.013543 12.315 0.128595 12.0263 0.364986L0.845264 10.204C0.589888 10.4292 0.385359 10.7062 0.245264 11.0165C0.105169 11.3269 0.0327148 11.6635 0.0327148 12.004C0.0327148 12.3445 0.105169 12.6811 0.245264 12.9914C0.385359 13.3018 0.589888 13.5788 0.845264 13.804L12.0243 23.641C12.3133 23.8744 12.6813 23.9871 13.0514 23.9556C13.4216 23.924 13.7652 23.7506 14.0105 23.4716C14.2558 23.1926 14.3838 22.8296 14.3677 22.4584C14.3517 22.0873 14.1928 21.7367 13.9243 21.48L5.28726 13.88C5.24955 13.8462 5.22292 13.8018 5.21088 13.7527C5.19884 13.7035 5.20195 13.6519 5.21979 13.6045C5.23764 13.5571 5.26939 13.5163 5.31087 13.4873C5.35236 13.4583 5.40165 13.4425 5.45226 13.442H22.5653C22.9405 13.4321 23.297 13.2761 23.5589 13.0072C23.8208 12.7383 23.9673 12.3778 23.9673 12.0025C23.9673 11.6271 23.8208 11.2666 23.5589 10.9978C23.297 10.7289 22.9405 10.5729 22.5653 10.563V10.565Z" fill="#163657"/>
</svg>
