<svg width="24" height="24" viewBox="0 0 24 24" fill="none" xmlns="http://www.w3.org/2000/svg">
<path d="M22.5652 10.565H5.45423C5.40362 10.5646 5.35433 10.5488 5.31284 10.5198C5.27136 10.4908 5.23961 10.4499 5.22176 10.4025C5.20392 10.3552 5.20081 10.3035 5.21285 10.2544C5.22489 10.2052 5.25152 10.1608 5.28923 10.127L13.9262 2.52705C14.1978 2.27104 14.3593 1.91961 14.3768 1.54684C14.3943 1.17406 14.2664 0.809049 14.02 0.528728C13.7737 0.248406 13.4281 0.0746717 13.0562 0.0441379C12.6843 0.0136041 12.315 0.128656 12.0262 0.365047L0.845234 10.204C0.589858 10.4293 0.385329 10.7063 0.245234 11.0166C0.105138 11.3269 0.0326843 11.6635 0.0326843 12.004C0.0326843 12.3445 0.105138 12.6812 0.245234 12.9915C0.385329 13.3018 0.589858 13.5788 0.845234 13.804L12.0242 23.641C12.3132 23.8745 12.6813 23.9872 13.0514 23.9556C13.4216 23.924 13.7652 23.7506 14.0105 23.4717C14.2558 23.1927 14.3838 22.8297 14.3677 22.4585C14.3516 22.0874 14.1927 21.7368 13.9242 21.48L5.28723 13.88C5.24952 13.8463 5.22289 13.8019 5.21085 13.7527C5.19881 13.7036 5.20192 13.6519 5.21976 13.6046C5.23761 13.5572 5.26936 13.5163 5.31084 13.4873C5.35233 13.4583 5.40162 13.4425 5.45223 13.442H22.5652C22.9404 13.4322 23.297 13.2762 23.5589 13.0073C23.8207 12.7384 23.9673 12.3779 23.9673 12.0025C23.9673 11.6272 23.8207 11.2667 23.5589 10.9978C23.297 10.7289 22.9404 10.5729 22.5652 10.563V10.565Z" fill="white" fill-opacity="0.7"/>
</svg>
