<svg width="24" height="24" viewBox="0 0 24 24" fill="none" xmlns="http://www.w3.org/2000/svg">
<path d="M22.5653 10.565H5.45426C5.40365 10.5646 5.35436 10.5488 5.31287 10.5198C5.27139 10.4908 5.23964 10.4499 5.22179 10.4025C5.20395 10.3552 5.20084 10.3035 5.21288 10.2544C5.22492 10.2052 5.25155 10.1608 5.28926 10.127L13.9263 2.52705C14.1978 2.27104 14.3593 1.91961 14.3768 1.54684C14.3943 1.17406 14.2664 0.809049 14.0201 0.528728C13.7737 0.248406 13.4282 0.0746717 13.0562 0.0441379C12.6843 0.0136041 12.315 0.128656 12.0263 0.365047L0.845264 10.204C0.589888 10.4293 0.385359 10.7063 0.245264 11.0166C0.105169 11.3269 0.0327148 11.6635 0.0327148 12.004C0.0327148 12.3445 0.105169 12.6812 0.245264 12.9915C0.385359 13.3018 0.589888 13.5788 0.845264 13.804L12.0243 23.641C12.3133 23.8745 12.6813 23.9872 13.0514 23.9556C13.4216 23.924 13.7652 23.7506 14.0105 23.4717C14.2558 23.1927 14.3838 22.8297 14.3677 22.4585C14.3517 22.0874 14.1928 21.7368 13.9243 21.48L5.28726 13.88C5.24955 13.8463 5.22292 13.8019 5.21088 13.7527C5.19884 13.7036 5.20195 13.6519 5.21979 13.6046C5.23764 13.5572 5.26939 13.5163 5.31087 13.4873C5.35236 13.4583 5.40165 13.4425 5.45226 13.442H22.5653C22.9405 13.4322 23.297 13.2762 23.5589 13.0073C23.8208 12.7384 23.9673 12.3779 23.9673 12.0025C23.9673 11.6272 23.8208 11.2667 23.5589 10.9978C23.297 10.7289 22.9405 10.5729 22.5653 10.563V10.565Z" fill="#163657"/>
</svg>
